<?xml version="1.0" standalone="no"?>
<!DOCTYPE svg PUBLIC "-//W3C//DTD SVG 20010904//EN"
 "http://www.w3.org/TR/2001/REC-SVG-20010904/DTD/svg10.dtd">
<svg version="1.0" xmlns="http://www.w3.org/2000/svg"
 width="1024.000000pt" height="1024.000000pt" viewBox="0 0 1024.000000 1024.000000"
 preserveAspectRatio="xMidYMid meet">

<g transform="translate(0.000000,1024.000000) scale(0.100000,-0.100000)"
fill="#000000" stroke="none">
<path d="M1571 8913 c-1 -6 19 -78 43 -160 49 -165 81 -277 96 -340 10 -38 16
-45 78 -76 37 -19 195 -99 352 -179 344 -174 511 -262 649 -341 57 -32 196
-106 309 -163 113 -57 213 -111 221 -121 15 -16 15 -16 -2 -4 -15 12 -17 12
-12 0 9 -23 552 -313 640 -343 63 -20 380 -227 325 -211 -58 16 -414 152 -539
205 -75 31 -176 72 -226 90 -49 18 -153 60 -230 93 -77 33 -198 83 -270 113
-71 29 -168 70 -215 92 -47 22 -135 60 -196 85 -62 25 -161 70 -220 100 -60
30 -143 69 -184 87 -41 18 -120 55 -174 82 -54 26 -101 46 -104 43 -4 -4 65
-153 211 -455 13 -26 60 -43 702 -254 127 -41 331 -109 455 -150 371 -124
1076 -346 1096 -346 7 0 15 -12 19 -27 7 -29 47 -89 73 -110 9 -7 14 -14 11
-17 -2 -2 -67 12 -144 30 -253 60 -439 103 -475 109 -42 7 -280 62 -625 145
-316 76 -799 203 -849 224 l-37 16 22 -38 c19 -31 126 -176 219 -296 14 -18
32 -42 40 -54 12 -18 33 -24 115 -37 55 -8 143 -23 195 -34 98 -20 192 -35
580 -96 380 -60 778 -125 934 -153 125 -22 150 -30 157 -47 13 -31 31 -50 73
-79 21 -14 34 -26 28 -26 -24 0 -464 41 -581 54 -69 8 -193 20 -276 26 -225
16 -363 29 -545 50 -91 10 -205 22 -255 25 -49 4 -110 10 -134 15 l-43 8 73
-75 c82 -82 159 -146 262 -216 52 -35 79 -47 120 -51 88 -10 1522 -37 1541
-30 12 5 27 -3 49 -24 18 -17 47 -37 66 -45 l33 -14 -73 -12 c-535 -83 -532
-82 -874 -93 -181 -6 -363 -12 -403 -12 l-74 -1 34 -28 c55 -47 170 -127 219
-152 62 -32 234 -91 289 -99 34 -5 70 0 140 19 52 14 136 34 185 45 50 11 146
34 215 50 69 16 190 43 270 60 80 17 178 41 217 52 l73 21 41 -29 41 -28 -59
-29 c-80 -41 -235 -93 -332 -111 -138 -26 -402 -134 -409 -167 -3 -15 34 -29
138 -50 57 -12 151 -9 399 11 149 13 196 8 211 -20 8 -15 -4 -33 -75 -112
-117 -127 -294 -288 -390 -353 -44 -30 -101 -73 -127 -96 -51 -45 -93 -58
-180 -59 -54 0 -58 -2 -57 -22 0 -13 3 -17 6 -10 6 16 21 15 39 -2 21 -22 18
-33 -24 -74 -125 -122 -472 -362 -524 -362 -9 0 -21 -7 -26 -15 -4 -9 -21 -19
-38 -24 -16 -4 -29 -14 -29 -22 0 -8 -9 -19 -20 -26 -11 -6 -19 -15 -17 -18 5
-11 -50 -45 -61 -38 -6 3 -7 1 -3 -5 4 -7 -14 -25 -48 -47 -30 -19 -58 -35
-61 -35 -4 0 -22 -16 -41 -35 -18 -19 -41 -35 -49 -35 -9 0 -18 -6 -21 -14 -3
-8 -38 -34 -77 -58 -40 -23 -126 -84 -192 -134 -291 -220 -993 -701 -1080
-739 l-30 -13 45 -6 c147 -18 265 -26 369 -26 65 0 120 -3 124 -6 3 -3 -12
-56 -34 -118 -22 -61 -54 -154 -71 -206 -17 -52 -41 -119 -54 -149 -29 -64
-29 -65 -6 -56 81 32 250 66 355 72 l117 6 0 -43 c0 -86 -36 -185 -189 -525
-45 -99 -86 -184 -91 -189 -28 -28 1 -18 103 36 300 160 403 212 502 253 134
56 155 72 207 148 56 83 189 261 798 1062 92 122 311 401 460 585 15 19 31 32
35 28 11 -10 -30 -85 -112 -204 -41 -60 -141 -208 -222 -329 -227 -339 -527
-767 -706 -1010 -28 -38 -84 -122 -124 -185 -40 -63 -104 -160 -141 -215 -38
-55 -69 -104 -69 -108 -1 -4 18 5 42 21 62 42 323 189 464 261 l121 62 64 117
c98 178 179 318 240 417 31 50 78 128 105 175 28 47 83 139 123 205 40 66 98
165 130 220 32 55 109 188 172 295 63 107 128 220 145 250 16 30 48 89 70 130
23 41 47 94 54 118 13 44 26 50 71 33 31 -12 188 -129 188 -140 0 -5 -17 -19
-37 -32 -134 -79 -188 -211 -133 -324 28 -58 108 -129 160 -143 45 -11 48 -8
21 22 -46 52 -56 175 -18 241 49 86 231 135 312 85 52 -32 75 -74 75 -137 0
-64 -10 -91 -52 -138 -35 -41 -121 -87 -144 -78 -27 10 -14 -7 28 -37 70 -51
141 -41 236 32 40 31 61 58 88 113 34 70 36 77 32 157 -3 58 -10 96 -25 126
-12 23 -17 42 -13 42 5 0 28 -18 51 -40 l42 -40 -6 -62 c-3 -35 -14 -83 -26
-108 -29 -63 -28 -90 4 -90 95 0 193 122 203 251 5 72 -12 117 -70 191 -34 43
-145 103 -210 113 -145 22 -143 21 -187 91 -23 36 -41 74 -41 85 0 25 80 102
128 122 20 9 82 34 137 56 55 21 132 52 170 68 l70 30 7 129 c7 122 3 308 -8
347 -6 18 -49 24 -59 7 -3 -5 -20 -10 -38 -10 -24 0 -28 3 -19 12 7 7 12 16
12 21 0 5 -21 -9 -47 -30 -27 -22 -130 -93 -230 -157 -101 -65 -183 -120 -183
-122 0 -2 10 -2 23 0 12 3 26 5 30 5 5 1 6 4 4 9 -3 4 50 7 118 6 78 0 122 3
118 9 -4 6 -1 7 7 2 26 -16 -117 -114 -247 -169 -73 -30 -74 -31 -67 -11 4 10
0 15 -12 15 -12 0 -15 3 -8 8 6 4 13 26 15 48 4 42 4 42 -28 39 -18 -2 -53
-17 -78 -34 -26 -17 -59 -38 -76 -46 -17 -9 -27 -21 -23 -27 4 -6 3 -8 -4 -4
-13 8 -128 -59 -146 -85 -7 -11 -15 -17 -18 -14 -3 3 -39 -11 -81 -30 -107
-50 -115 -49 -136 5 -15 39 -90 174 -137 245 -15 22 -13 24 76 89 210 154 443
308 670 441 58 34 222 131 365 214 143 84 289 177 325 207 36 30 94 79 128
108 56 48 68 54 97 49 32 -5 41 2 252 210 335 331 346 338 668 447 110 38 209
71 220 75 11 4 -8 -12 -42 -36 -63 -45 -184 -149 -371 -319 -136 -123 -293
-318 -514 -640 -16 -24 -17 -24 -17 -4 -1 11 -10 29 -21 39 -28 25 -67 7 -113
-54 -39 -51 -46 -75 -23 -84 8 -3 16 -16 18 -28 2 -15 12 -26 28 -30 33 -9
297 -11 502 -2 l165 6 63 95 c91 137 140 243 215 462 92 269 161 386 294 497
130 109 269 152 449 140 102 -7 171 -36 241 -102 l49 -46 7 77 c9 96 1 223
-19 290 -49 159 -242 337 -391 360 -40 5 -47 11 -72 53 -39 67 -177 200 -263
253 -158 99 -309 138 -530 138 -224 0 -606 18 -745 35 -132 16 -161 21 -345
64 -69 15 -126 25 -128 20 -5 -11 109 -225 169 -320 58 -91 139 -170 241 -236
l75 -50 -101 -69 c-137 -93 -148 -93 -346 8 -227 115 -718 398 -1365 788 -487
293 -625 377 -776 476 -74 48 -172 110 -219 139 -115 71 -314 170 -307 153 10
-29 106 -334 116 -373 9 -33 18 -45 53 -63 64 -33 112 -62 828 -504 197 -122
498 -313 608 -386 28 -19 52 -39 52 -44 0 -5 9 -19 20 -31 13 -13 16 -23 10
-25 -14 -5 -369 172 -494 246 -49 29 -137 78 -195 109 -58 31 -142 77 -186
103 -44 26 -138 78 -210 115 -71 38 -168 91 -215 118 -105 61 -250 140 -250
135 1 -11 65 -204 95 -287 l37 -100 126 -69 c338 -186 585 -316 1227 -649 143
-75 307 -161 365 -193 120 -66 363 -186 495 -245 138 -61 197 -105 253 -190
29 -42 55 -95 62 -125 12 -50 10 -203 -3 -216 -9 -9 -291 139 -527 277 -248
145 -575 336 -670 389 -36 20 -139 79 -230 130 -166 94 -420 242 -715 420 -88
53 -216 127 -285 165 -69 37 -149 83 -177 101 -29 19 -110 65 -180 102 -303
163 -749 419 -1068 614 -123 75 -234 142 -335 201 -47 27 -141 86 -210 131
-69 46 -137 90 -151 99 -15 9 -56 41 -92 71 -54 47 -69 65 -85 113 -11 32 -21
53 -21 46z m5054 -1329 c79 -10 262 -18 535 -23 l415 -8 82 -30 c45 -16 107
-45 138 -64 68 -40 205 -180 205 -208 0 -15 -11 -23 -39 -32 -37 -11 -41 -10
-105 34 -75 52 -147 81 -222 92 -61 8 -378 -9 -587 -31 -147 -16 -149 -16
-215 6 -79 26 -136 57 -214 117 -55 41 -148 140 -148 155 0 11 17 10 155 -8z
m1041 -415 c64 -62 36 -154 -53 -166 -55 -7 -84 1 -116 33 -47 46 -31 140 27
164 43 19 105 5 142 -31z m-397 -114 c70 -156 212 -228 384 -196 34 7 71 15
82 18 36 10 -22 -43 -74 -68 -65 -31 -301 -105 -418 -131 -88 -20 -126 -22
-363 -23 -212 0 -280 3 -340 17 -41 9 -95 19 -120 23 -66 9 -274 56 -282 63
-4 4 70 47 163 96 180 94 317 177 385 232 l42 34 248 3 c137 1 251 3 254 5 3
1 20 -32 39 -73z m937 51 c135 -45 194 -92 247 -194 47 -89 47 -95 0 -78 -71
25 -129 27 -327 11 -109 -9 -200 -14 -203 -11 -3 2 8 24 24 48 16 24 36 59 45
80 27 58 110 168 128 168 9 0 48 -11 86 -24z m-3424 -400 c92 -46 207 -106
255 -134 48 -27 153 -86 233 -130 80 -44 228 -128 330 -187 102 -59 228 -131
280 -160 52 -29 131 -74 175 -101 44 -27 92 -56 107 -63 36 -18 42 -38 15 -46
-12 -4 -65 -23 -117 -42 -197 -73 -327 -57 -595 76 -242 120 -341 187 -478
321 -143 138 -167 170 -308 405 -19 31 -71 145 -66 145 1 0 77 -38 169 -84z
m1826 -197 c106 -17 166 -20 262 -17 l124 5 -174 -169 c-96 -92 -204 -191
-240 -218 l-65 -50 -6 98 c-8 138 -33 212 -103 315 -15 21 -24 43 -21 48 9 14
74 11 223 -12z m737 -409 c10 -11 31 -20 46 -20 15 0 31 -5 35 -11 7 -12 -35
-9 -67 5 -12 5 -18 0 -24 -21 -16 -65 -16 -71 8 -75 29 -6 49 1 41 13 -3 5 0
9 5 9 6 0 11 -2 11 -5 0 -17 -96 -195 -119 -218 -31 -35 -102 -72 -165 -88
-83 -21 -84 -11 -10 108 86 140 207 323 215 323 3 0 14 -9 24 -20z m-2601
-1466 c8 -25 27 -59 41 -75 14 -17 25 -40 25 -51 0 -27 -271 -294 -625 -615
-60 -55 -162 -148 -225 -206 -303 -282 -563 -520 -654 -601 -56 -49 -145 -131
-199 -183 -54 -52 -104 -92 -110 -90 -7 2 -56 62 -109 132 -136 179 -135 200
17 307 28 19 131 100 231 179 224 179 417 326 789 605 450 338 712 548 802
642 0 1 8 -19 17 -44z m783 35 c6 -6 17 -8 24 -3 7 4 29 8 48 9 l36 2 -33 -13
c-34 -15 -198 -58 -264 -70 -31 -5 -38 -3 -38 9 0 9 5 19 12 23 8 5 9 2 5 -9
-3 -10 -2 -17 3 -17 6 0 10 9 10 20 0 21 24 28 35 10 3 -5 12 -10 18 -9 9 0 9
2 0 6 -15 6 -17 29 -3 38 6 4 7 -1 3 -11 -4 -11 -3 -15 5 -11 6 4 12 1 14 -6
2 -12 14 -11 66 1 42 10 59 19 53 25 -7 7 -15 6 -25 -2 -8 -7 -17 -8 -20 -3
-13 21 31 31 51 11z m-607 -298 c0 -10 7 -24 16 -31 13 -12 8 -21 -44 -74 -32
-34 -112 -126 -177 -206 -223 -272 -370 -446 -460 -546 -341 -378 -727 -822
-891 -1024 -56 -69 -126 -153 -157 -187 l-55 -62 -7 85 c-4 47 -6 151 -3 232
3 120 7 152 22 177 10 17 64 68 119 115 55 47 258 234 450 415 192 182 422
398 511 481 88 83 274 263 411 400 138 137 253 248 258 246 4 -2 7 -11 7 -21z
m748 -95 c41 -27 75 -54 77 -60 2 -6 6 -26 9 -43 l6 -33 -70 0 -69 0 -81 71
c-79 70 -105 102 -96 117 2 4 37 5 78 2 67 -5 79 -9 146 -54z"/>
<path d="M7170 5770 c-6 -11 -8 -20 -6 -20 3 0 10 9 16 20 6 11 8 20 6 20 -3
0 -10 -9 -16 -20z"/>
<path d="M8271 5378 l-1 -28 -154 0 c-85 0 -160 -2 -168 -5 -11 -4 -12 -72
-10 -361 l3 -355 -48 3 -48 3 -3 48 -3 47 -83 0 c-93 0 -96 2 -96 71 l0 39
-49 0 -50 0 -3 53 -3 52 -37 3 c-52 4 -61 26 -57 131 l4 86 -70 0 c-69 0 -70
0 -76 30 -4 17 -7 58 -8 93 l-1 62 -44 0 -44 0 -7 -405 -7 -405 -212 -2 c-116
-2 -266 -2 -333 -1 l-123 3 0 -75 0 -75 43 0 c24 0 52 7 63 15 10 8 35 15 55
15 28 0 41 6 53 25 11 17 26 25 46 25 l30 0 0 -68 c0 -38 3 -104 7 -146 6 -76
6 -78 31 -73 35 7 52 -1 63 -29 7 -20 15 -24 55 -24 45 0 46 0 44 33 -3 51 -2
54 25 60 32 6 49 -22 42 -68 -5 -32 -5 -33 44 -42 35 -7 52 -7 57 1 4 6 6 102
4 212 l-2 202 26 6 c14 4 42 4 62 0 20 -4 51 -8 67 -8 l30 -1 3 -109 3 -108
-40 4 -40 3 -6 -81 c-4 -45 -4 -109 0 -142 l7 -61 -53 -3 -53 -3 3 -47 3 -48
-55 0 -55 0 -7 51 -7 52 -124 -5 c-136 -5 -134 -6 -134 58 l0 34 -51 0 -50 0
7 -94 7 -95 -27 -7 c-14 -3 -38 -4 -51 -2 -24 5 -25 3 -25 -43 l0 -49 94 0 94
0 8 48 9 47 47 3 c25 2 61 -1 80 -6 28 -7 34 -14 39 -45 3 -21 8 -39 10 -41 2
-3 43 -8 90 -12 l86 -7 7 52 7 51 44 0 44 0 3 -47 c3 -43 5 -47 28 -48 14 -1
53 -2 88 -3 l62 -2 0 -54 0 -54 45 6 45 5 0 -51 c0 -58 -12 -65 -97 -55 -28 3
-64 3 -78 -1 -25 -6 -27 -10 -21 -46 3 -21 9 -45 12 -54 5 -13 -2 -16 -41 -16
l-47 0 7 56 c4 31 4 103 0 161 l-7 104 -46 -3 -46 -3 3 -220 c4 -291 2 -271
37 -267 37 3 48 -5 61 -43 11 -34 15 -34 160 -20 91 9 88 11 95 -70 l3 -30 85
4 c47 2 87 5 89 7 2 2 6 47 9 100 l5 96 91 -7 c50 -4 92 -8 93 -9 1 -1 5 -45
9 -98 l7 -97 31 -3 c31 -3 31 -4 36 -68 4 -48 9 -64 19 -62 53 11 274 16 429
10 102 -4 189 -5 194 0 12 12 11 513 -1 546 l-11 28 -80 -4 c-88 -3 -90 -2
-90 58 0 24 5 34 16 34 8 0 12 5 9 10 -3 6 -30 10 -59 10 -71 0 -183 36 -191
61 -9 28 2 39 41 39 30 0 34 3 34 28 0 15 3 37 6 50 6 20 3 22 -39 22 -48 0
-57 11 -57 73 l0 27 -100 0 -100 0 0 -45 0 -45 55 0 55 0 0 -55 0 -55 -105 0
-105 0 0 123 c0 67 -3 132 -6 145 -6 21 -3 22 45 22 l51 0 0 110 0 110 -50 0
c-43 0 -50 -3 -50 -19 0 -30 -13 -33 -100 -25 l-80 7 0 71 c0 52 -5 78 -19 99
-16 24 -19 26 -31 12 -21 -25 -29 -17 -41 45 l-12 60 -33 -6 -34 -6 0 76 0 76
39 0 c40 0 51 -13 51 -66 0 -18 8 -22 46 -28 26 -3 64 -6 86 -6 l38 0 -6 -93
-7 -93 102 4 c55 2 126 1 156 -3 l55 -6 0 -108 c0 -60 3 -128 6 -153 l6 -45
90 -6 c50 -3 93 -8 96 -12 3 -3 8 -43 10 -90 l5 -85 53 0 54 0 0 -50 c0 -32 5
-52 13 -56 7 -2 53 -6 103 -7 l89 -2 3 52 3 52 -38 6 c-21 4 -45 7 -53 8 -9 1
-19 19 -24 45 l-9 42 -48 0 -49 0 0 45 0 45 -50 0 -50 0 0 90 0 90 -55 0 -55
0 0 120 c0 120 0 121 -26 130 -14 6 -55 10 -92 11 -112 1 -157 11 -160 35 -3
18 4 22 45 28 99 13 221 19 286 12 l68 -8 -7 -159 -7 -159 51 0 52 0 0 -37 c0
-51 9 -61 55 -65 37 -3 40 -5 43 -35 3 -33 3 -33 59 -33 l56 0 -7 38 c-3 20
-6 56 -6 78 0 40 -1 42 -37 49 -44 8 -53 18 -53 62 0 31 0 31 41 26 49 -7 55
0 64 72 4 27 9 58 12 68 4 16 -2 18 -59 15 l-63 -3 -9 -52 -10 -53 -43 0 -43
0 -1 58 c0 31 -2 66 -4 77 -2 11 -2 30 2 43 5 21 9 22 121 22 l115 0 -6 158
c-4 86 -7 250 -7 365 l0 207 -194 0 c-194 0 -195 0 -199 23 -4 19 -4 18 -6 -5z
m284 -381 l0 -232 -240 0 -240 0 -3 233 -2 232 242 0 243 0 0 -233z m-1150
-89 l0 -53 48 -3 47 -3 0 -160 0 -159 -50 0 -50 0 0 39 c0 21 -3 59 -6 84 -7
46 -7 46 -43 44 l-36 -2 -5 133 -5 132 50 0 50 0 0 -52z m-370 -528 c41 -34
-5 -110 -65 -110 -31 0 -40 15 -40 65 0 58 8 68 52 62 21 -3 45 -11 53 -17z
m615 -57 c0 -38 -3 -98 -7 -135 l-6 -68 -48 0 c-52 0 -55 5 -49 63 1 13 -4 18
-17 15 -12 -2 -19 -14 -21 -36 -5 -49 -19 -38 -32 25 -21 99 -2 173 47 178 10
1 25 5 33 8 35 13 46 15 73 16 27 1 27 1 27 -66z m265 -125 c3 -2 6 -20 7 -39
3 -36 -2 -39 -56 -25 -24 6 -25 4 -28 -51 l-3 -58 -87 4 -88 3 0 -50 c0 -54
-9 -62 -72 -62 -27 0 -28 -2 -28 -56 l0 -55 -37 3 -38 3 -3 58 -3 57 -84 0
-85 0 0 50 0 50 168 2 167 3 3 42 3 42 47 3 47 3 0 43 0 42 83 -4 c46 -2 85
-6 87 -8z m-22 -374 l37 -7 0 -168 0 -169 -90 0 c-102 0 -104 2 -98 96 l3 49
43 0 43 0 -3 50 -3 50 -87 3 -88 3 0 44 c0 37 3 44 23 48 36 7 179 7 220 1z
m375 -251 l3 -123 -111 0 -110 0 0 125 0 126 108 -3 107 -3 3 -122z m290 -220
c2 -183 2 -183 -20 -188 -13 -3 -86 -2 -163 2 l-140 8 -3 84 -3 84 64 -6 64
-6 7 52 c3 29 6 73 6 98 0 25 3 49 7 53 4 4 46 5 93 4 l85 -3 3 -182z m-908
108 c0 -32 3 -86 6 -120 l7 -61 -52 0 -51 0 0 65 c0 62 -1 65 -24 65 -13 0
-38 3 -55 6 -30 6 -31 9 -31 55 l0 49 100 0 100 0 0 -59z"/>
<path d="M8180 5003 l0 -130 68 -6 c37 -4 97 -7 135 -7 l67 0 0 130 0 130 -74
0 c-40 0 -101 3 -135 6 l-61 7 0 -130z"/>
<path d="M8128 3605 c-2 -3 -3 -18 0 -35 4 -29 12 -33 60 -29 12 0 4 52 -10
61 -15 9 -42 11 -50 3z"/>
<path d="M6412 5341 c-4 -9 -7 -171 -7 -361 l0 -345 345 3 c189 1 347 5 350 8
3 4 15 532 15 700 0 1 -157 4 -348 6 -308 4 -349 2 -355 -11z m576 -343 l-3
-233 -230 0 -230 0 -3 233 -2 232 235 0 235 0 -2 -232z"/>
<path d="M6628 4996 l3 -136 125 0 124 0 0 130 0 130 -69 0 c-37 0 -95 3 -127
6 l-59 6 3 -136z"/>
<path d="M7490 5290 l0 -50 35 0 35 0 0 -79 c0 -99 10 -127 47 -134 36 -7 43
5 43 76 l0 57 50 0 50 0 0 38 c0 20 -3 54 -6 75 -6 34 -9 37 -38 37 -26 0 -34
-6 -43 -27 l-11 -28 -1 36 c-1 34 -3 37 -38 43 -21 3 -57 6 -80 6 l-43 0 0
-50z"/>
<path d="M7753 5070 c-19 -8 -23 -17 -23 -58 l0 -48 -35 4 -35 4 0 -55 c0 -60
7 -67 62 -67 30 0 30 0 26 51 l-3 50 31 -6 c54 -10 64 0 64 66 0 40 -4 59 -12
59 -7 0 -22 2 -33 5 -11 2 -30 0 -42 -5z"/>
<path d="M5670 4709 c0 -5 5 -7 10 -4 6 3 10 8 10 11 0 2 -4 4 -10 4 -5 0 -10
-5 -10 -11z"/>
<path d="M7760 4416 c0 -12 40 -36 60 -36 6 0 10 7 10 15 0 8 -1 15 -3 15 -1
0 -17 4 -35 9 -24 7 -32 6 -32 -3z"/>
<path d="M6463 4353 l-53 -4 0 -110 0 -109 60 0 60 0 0 -55 0 -55 48 0 c59 0
72 12 72 66 l0 42 39 -5 c46 -6 51 4 51 110 l0 67 -56 0 -56 0 4 -55 3 -55
-46 0 -47 0 -7 85 c-4 47 -10 84 -13 83 -4 -1 -31 -3 -59 -5z"/>
<path d="M6412 3883 l3 -48 63 -3 62 -3 0 51 0 50 -66 0 -65 0 3 -47z"/>
<path d="M6414 3653 c4 -43 3 -94 -2 -113 -7 -33 -10 -35 -57 -40 -42 -4 -46
-6 -25 -12 14 -4 35 -8 48 -8 22 0 22 -1 23 -162 1 -90 4 -190 8 -223 l6 -60
347 0 348 0 0 341 0 341 -67 6 c-38 4 -195 7 -351 7 l-283 0 5 -77z m578 -473
c-2 -12 -19 -14 -85 -12 -45 2 -148 -1 -228 -5 l-147 -8 -4 125 c-2 69 -2 173
0 232 l5 108 226 2 226 3 5 -215 c3 -118 4 -222 2 -230z"/>
<path d="M6630 3390 l0 -130 124 0 123 0 7 46 c3 26 6 84 6 130 l0 84 -130 0
-130 0 0 -130z"/>
<path d="M7232 3223 c-25 -3 -32 -8 -28 -20 3 -8 6 -53 6 -99 l0 -84 45 0 45
0 0 105 c0 116 6 107 -68 98z"/>
<path d="M7470 3085 c0 -81 0 -81 59 -69 l31 7 0 68 0 69 -45 0 -45 0 0 -75z"/>
<path d="M7820 3141 c-6 -12 -21 -21 -34 -21 -27 0 -36 -17 -36 -66 l0 -35 83
3 82 3 0 65 0 65 -42 3 c-34 3 -44 -1 -53 -17z"/>
<path d="M8280 2673 c0 -10 -38 -13 -154 -13 -85 0 -157 -4 -160 -8 -3 -5 -1
-53 4 -108 5 -54 11 -196 14 -314 l6 -215 329 0 329 -1 6 111 c4 60 7 213 9
338 l2 228 -192 -3 c-146 -2 -193 -6 -193 -15z m266 -325 l-2 -223 -124 -3
c-69 -2 -171 0 -226 3 l-102 7 -4 206 c-2 114 -2 209 0 212 2 4 90 8 408 18
l51 2 -1 -222z"/>
<path d="M8177 2453 c-2 -5 -1 -57 2 -118 l6 -110 130 -5 c72 -3 131 -5 132
-5 1 1 -1 56 -4 123 l-6 122 -128 0 c-70 0 -129 -3 -132 -7z"/>
<path d="M6435 2649 c-7 -31 -5 -91 17 -445 l11 -192 171 -6 c94 -3 241 -2
326 2 l155 7 3 323 2 324 -150 -7 c-133 -7 -150 -6 -156 9 -5 14 -29 16 -189
16 l-183 0 -7 -31z m573 -312 l2 -217 -221 2 -222 3 -3 215 -2 215 221 0 222
0 3 -218z"/>
<path d="M6665 2448 c-3 -8 -4 -63 -3 -124 l3 -109 129 -3 128 -3 -7 118 c-4
65 -8 119 -9 119 0 1 -54 5 -118 9 -97 6 -119 4 -123 -7z"/>
<path d="M7220 2561 l0 -101 40 0 40 0 0 -71 0 -71 -35 4 c-43 5 -42 9 -50
-218 l-6 -161 43 -6 c24 -3 47 -2 53 4 5 5 29 9 53 9 l45 0 -7 46 c-3 26 -6
62 -6 80 0 32 -1 33 -37 31 l-38 -2 0 90 0 90 35 -1 c19 -1 41 -2 48 -3 7 -1
12 -16 12 -41 0 -35 3 -40 23 -40 12 0 32 -3 44 -6 21 -6 21 -9 17 -127 -2
-67 -7 -137 -9 -154 -6 -31 -9 -33 -44 -33 -44 0 -51 -10 -51 -71 l0 -39 -45
7 -45 6 0 -81 c0 -105 2 -108 50 -104 l40 4 0 -67 0 -68 68 6 c37 4 95 7 130
7 l63 0 -3 58 -3 57 -85 10 c-71 8 -85 13 -84 28 0 9 1 37 2 61 l2 43 43 0
c23 0 60 7 82 15 l40 16 3 -84 3 -84 42 0 c23 0 47 -4 54 -8 7 -4 30 -6 53 -4
l40 4 0 79 0 79 -43 -6 -43 -6 -10 63 -9 64 -40 5 c-39 5 -40 6 -43 48 -3 37
-6 42 -27 42 -28 0 -45 26 -45 67 0 44 13 55 56 51 34 -3 40 -7 53 -41 12 -33
12 -40 0 -47 -24 -15 16 -23 80 -16 l58 7 7 -62 c7 -59 8 -61 33 -54 22 5 146
-5 250 -21 l32 -5 3 -147 3 -147 30 3 c17 2 39 4 50 5 17 2 21 -5 25 -48 5
-49 5 -50 42 -53 33 -3 37 -6 40 -35 3 -34 10 -36 83 -26 l30 4 -3 -52 -3 -53
35 0 c19 0 41 -3 50 -6 14 -5 16 3 16 53 0 33 -5 75 -11 92 -11 30 -15 32 -53
30 -22 -1 -61 -1 -85 0 l-44 1 6 50 6 50 -53 0 c-48 0 -54 2 -58 23 -9 48 1
59 48 55 l44 -3 0 37 0 37 -47 3 -48 3 -3 101 -3 101 -92 7 c-51 4 -122 9
-159 13 l-67 6 -8 41 c-9 40 -9 41 -84 66 -42 14 -87 31 -100 37 -13 7 -35 13
-49 15 -22 3 -25 9 -28 47 l-3 43 -50 -6 -49 -7 0 51 0 50 -46 0 -46 0 3 83 4
82 -42 3 -43 3 0 49 0 49 -42 3 -43 3 0 50 0 50 -42 3 -43 3 0 -100z"/>
<path d="M7498 2654 c-5 -4 -8 -32 -8 -62 l0 -54 35 4 35 4 0 -88 0 -88 28 0
c15 0 37 -3 49 -6 22 -6 23 -4 16 41 l-6 48 46 -7 47 -7 0 65 0 65 -30 -11
c-43 -14 -60 -5 -60 34 0 18 -4 38 -8 44 -8 14 -134 29 -144 18z"/>
<path d="M7749 2363 c-1 -4 -2 -28 -3 -53 -1 -48 -5 -50 -61 -36 -23 6 -25 4
-25 -29 0 -31 3 -35 19 -30 11 3 54 7 96 9 42 2 81 8 88 15 6 6 12 37 12 69
l0 57 -62 3 c-35 2 -64 -1 -64 -5z"/>
<path d="M7000 1918 c-107 -4 -243 -5 -302 -2 l-108 6 0 -41 c0 -35 4 -43 31
-56 16 -9 47 -15 67 -13 29 2 37 8 42 28 5 23 10 25 78 28 45 2 72 -1 72 -8 0
-5 9 -10 20 -10 15 0 20 -7 20 -29 0 -24 -5 -29 -31 -35 -17 -3 -53 -6 -80 -6
-27 0 -49 -4 -49 -10 0 -5 16 -10 35 -10 24 0 37 -6 45 -20 8 -15 21 -20 50
-20 30 0 40 -5 45 -20 3 -11 17 -23 31 -26 13 -4 29 -15 35 -25 6 -13 21 -19
44 -19 32 0 59 -16 67 -41 2 -6 25 -13 51 -16 l47 -6 -1 74 c-1 41 -4 121 -8
179 l-6 105 -195 -7z m143 -163 c4 -8 2 -17 -3 -20 -6 -4 -10 3 -10 14 0 25 6
27 13 6z m-43 -4 c0 -10 -24 -21 -46 -21 -8 0 -14 7 -14 15 0 10 10 15 30 15
17 0 30 -4 30 -9z"/>
<path d="M8360 1824 l0 -104 40 0 c35 0 42 -4 51 -27 5 -15 7 -44 4 -64 -6
-32 -4 -37 17 -43 34 -9 126 -7 132 2 3 5 -3 31 -12 58 -20 54 -46 74 -99 74
-31 0 -33 2 -33 35 l0 35 50 0 50 0 0 56 0 57 -46 -7 c-34 -4 -50 -2 -58 8 -6
7 -30 16 -53 19 l-43 5 0 -104z"/>
<path d="M6462 1693 l3 -87 35 -1 c28 0 35 -4 40 -25 6 -25 7 -25 111 -25
l104 0 3 -48 c3 -43 7 -50 33 -61 26 -11 28 -14 15 -31 -11 -16 -30 -20 -90
-23 l-76 -4 0 -33 0 -32 182 -6 c99 -4 223 -7 274 -7 51 0 99 -2 107 -5 11 -5
13 -22 9 -80 l-5 -74 37 -6 c57 -11 66 -3 66 61 0 55 1 56 18 41 10 -10 31
-17 46 -17 27 0 27 0 24 68 l-3 67 -54 -3 -54 -4 6 51 6 51 -39 0 c-39 0 -40
-1 -40 -36 l0 -35 -47 7 c-62 9 -63 10 -63 45 l0 30 -92 -2 -93 -2 -5 49 -5
49 -77 3 -78 3 0 64 c0 70 2 67 -74 81 l-39 7 6 -42 5 -42 -51 3 -52 3 -3 68
-3 67 -45 0 -45 0 3 -87z"/>
<path d="M7928 1663 l-3 -88 -45 0 c-49 0 -44 11 -48 -104 -2 -53 -2 -53 -29
-46 -16 3 -41 13 -57 21 -16 8 -39 14 -52 14 -19 0 -24 -7 -31 -52 l-8 -51
-45 -4 c-25 -2 -46 -9 -48 -14 -6 -15 -22 -10 -22 6 0 18 -16 20 -23 3 -4 -10
-6 -10 -6 0 -1 6 -11 12 -23 11 -13 0 -17 -3 -10 -6 8 -3 12 -28 12 -75 l0
-71 35 6 c34 6 35 5 35 -28 0 -32 -2 -34 -44 -40 -24 -4 -61 -5 -82 -3 -38 3
-39 2 -37 -27 1 -16 -1 -41 -3 -54 -5 -23 -6 -23 -89 -16 l-85 7 0 -96 0 -96
29 0 c16 0 34 -7 41 -15 9 -11 27 -15 54 -13 l41 3 3 83 3 82 28 -15 c23 -11
30 -23 35 -58 4 -24 4 -51 0 -60 -5 -15 2 -17 50 -17 l57 0 -3 -62 c-3 -61 -4
-63 -33 -68 -33 -6 -40 -23 -30 -76 5 -29 10 -34 35 -34 28 0 29 1 32 58 l3
57 42 6 c24 3 45 8 48 11 3 3 3 29 -1 59 -6 54 -7 54 -41 55 -42 1 -53 15 -53
72 l0 42 -46 0 -45 0 3 48 3 47 88 3 c78 2 87 1 89 -15 0 -10 2 -53 2 -95 1
-42 5 -80 8 -84 4 -3 28 6 53 20 40 24 53 27 127 24 l83 -3 3 -78 c3 -90 9
-96 80 -76 26 7 85 15 132 18 l85 6 1 30 c1 55 1 55 62 55 l57 0 0 165 c0 133
-3 167 -15 179 -10 10 -47 17 -110 22 -91 7 -103 22 -19 23 42 1 49 12 49 76
l0 44 -47 3 -48 3 -5 45 -5 45 -50 0 -50 0 3 -46 c4 -51 -6 -59 -75 -59 l-31
0 -7 75 c-4 41 -4 86 -1 101 7 25 9 26 57 21 l49 -6 0 94 0 95 -55 0 -54 0 -3
-87z m-71 -363 c10 -11 30 -20 46 -20 l29 0 -7 -117 c-4 -65 -8 -119 -9 -120
-2 -2 -53 -2 -123 0 -46 1 -53 11 -53 76 l0 33 45 -4 c48 -3 55 3 55 49 l0 26
-100 -5 -100 -5 0 47 c0 26 2 49 5 52 3 3 48 6 100 7 84 2 96 0 112 -19z m377
-151 c3 -17 6 -62 6 -100 l0 -69 -101 0 -102 0 7 61 c3 34 6 79 6 100 l0 39
89 0 89 0 6 -31z"/>
<path d="M8130 1100 c0 -38 1 -40 31 -40 30 0 31 1 25 32 -12 61 -56 67 -56 8z"/>
<path d="M6510 1445 c0 -9 -9 -15 -25 -15 -24 0 -25 -2 -25 -65 l0 -65 45 0
45 0 0 49 c0 68 -10 111 -26 111 -8 0 -14 -7 -14 -15z"/>
<path d="M7430 1345 c7 -9 15 -13 17 -11 7 7 -7 26 -19 26 -6 0 -6 -6 2 -15z"/>
<path d="M6471 1129 c2 -91 1 -94 -22 -99 l-24 -6 -2 -199 c-1 -110 -4 -221
-7 -247 l-5 -48 209 0 210 0 -6 43 -6 42 143 -5 c79 -3 145 -5 146 -5 5 2 7
595 2 599 -3 3 -148 9 -323 12 l-317 7 2 -94z m529 -214 c0 -204 0 -205 -22
-209 -59 -12 -239 -26 -334 -26 l-106 0 6 38 c5 33 26 339 26 385 0 16 17 17
215 17 l215 0 0 -205z"/>
<path d="M6660 941 c0 -49 3 -103 6 -120 l7 -31 113 0 c62 0 115 3 117 8 3 4
3 58 0 120 l-6 112 -118 0 -119 0 0 -89z"/>
<path d="M8386 1193 c-15 -4 -17 -11 -13 -41 7 -39 20 -52 54 -52 25 0 34 11
42 54 5 21 14 32 31 37 29 8 -83 10 -114 2z"/>
<path d="M8548 850 l4 -190 -141 6 -141 7 0 -73 0 -72 199 4 c110 2 201 6 203
8 2 3 2 116 0 253 l-4 247 -61 0 -62 0 3 -190z"/>
<path d="M7238 743 c-15 -4 -18 -16 -18 -69 l0 -64 45 0 45 0 0 39 c0 21 -3
53 -6 70 -7 31 -20 36 -66 24z"/>
<path d="M7851 711 c-6 -11 -11 -36 -11 -55 l0 -36 51 0 50 0 -3 53 -3 52 -37
3 c-28 2 -39 -1 -47 -17z"/>
<path d="M7354 694 c3 -9 6 -25 7 -37 0 -21 1 -21 9 -2 14 32 11 55 -6 55 -11
0 -14 -5 -10 -16z"/>
<path d="M3418 473 c34 -2 90 -2 125 0 34 2 6 3 -63 3 -69 0 -97 -1 -62 -3z"/>
<path d="M4058 473 c12 -2 32 -2 45 0 12 2 2 4 -23 4 -25 0 -35 -2 -22 -4z"/>
<path d="M4388 473 c17 -2 47 -2 65 0 17 2 3 4 -33 4 -36 0 -50 -2 -32 -4z"/>
<path d="M4707 473 c18 -2 50 -2 70 0 21 2 7 4 -32 4 -38 0 -55 -2 -38 -4z"/>
</g>
</svg>
